<svg xmlns="http://www.w3.org/2000/svg" width="720" height="1565" viewBox="0 0 720 1565"><defs><linearGradient id="sky" x2="0" y2="1"><stop stop-color="#89cddd"/><stop offset="1" stop-color="#e5eee0"/></linearGradient><linearGradient id="rock" x2="0" y2="1"><stop stop-color="#b8a2a5"/><stop offset="1" stop-color="#6e627e"/></linearGradient><linearGradient id="grass" x2="0" y2="1"><stop stop-color="#e2e9b7"/><stop offset="1" stop-color="#afd393"/></linearGradient><linearGradient id="pond" x2="0" y2="1"><stop stop-color="#70c4ce"/><stop offset="1" stop-color="#b0e1db"/></linearGradient></defs><rect x="0" y="0" width="720" height="1565" rx="0" fill="url(#sky)" stroke="none" stroke-width="3"/><ellipse cx="555" cy="255" rx="66" ry="66" fill="#fff4cd" stroke="none" stroke-width="3"/><g transform="translate(36 155) scale(0.85)"><path d="M 12 79 C -3 56 15 38 39 42 C 40 4 99 -2 116 34 C 147 14 180 35 179 57 C 218 50 237 80 209 94 C 166 107 43 103 12 79 Z" fill="#fffaf0" stroke="#809ca5" stroke-width="2" stroke-linecap="round" stroke-linejoin="round" /><path d="M 23 81 Q 99 95 202 84" fill="none" stroke="#d9e8e4" stroke-width="8" stroke-linecap="round" stroke-linejoin="round" /></g><g transform="translate(465 360) scale(1.12)"><path d="M 12 79 C -3 56 15 38 39 42 C 40 4 99 -2 116 34 C 147 14 180 35 179 57 C 218 50 237 80 209 94 C 166 107 43 103 12 79 Z" fill="#fffaf0" stroke="#809ca5" stroke-width="2" stroke-linecap="round" stroke-linejoin="round" /><path d="M 23 81 Q 99 95 202 84" fill="none" stroke="#d9e8e4" stroke-width="8" stroke-linecap="round" stroke-linejoin="round" /></g><g transform="translate(-80 478) scale(0.65)"><path d="M 12 79 C -3 56 15 38 39 42 C 40 4 99 -2 116 34 C 147 14 180 35 179 57 C 218 50 237 80 209 94 C 166 107 43 103 12 79 Z" fill="#fffaf0" stroke="#809ca5" stroke-width="2" stroke-linecap="round" stroke-linejoin="round" /><path d="M 23 81 Q 99 95 202 84" fill="none" stroke="#d9e8e4" stroke-width="8" stroke-linecap="round" stroke-linejoin="round" /></g><g opacity=".44" transform="translate(47 540) scale(0.38)"><path d="M 0 40 Q 70 12 144 40 Q 105 90 76 120 Q 40 103 0 40 Z" fill="#8499a0" stroke="none" stroke-width="3" stroke-linecap="round" stroke-linejoin="round" /><ellipse cx="72" cy="40" rx="73" ry="20" fill="#c4d8b6" stroke="none" stroke-width="3"/></g><g opacity=".44" transform="translate(549 532) scale(0.46)"><path d="M 0 40 Q 70 12 144 40 Q 105 90 76 120 Q 40 103 0 40 Z" fill="#8499a0" stroke="none" stroke-width="3" stroke-linecap="round" stroke-linejoin="round" /><ellipse cx="72" cy="40" rx="73" ry="20" fill="#c4d8b6" stroke="none" stroke-width="3"/></g><ellipse cx="359" cy="1062" rx="240" ry="35" fill="#839b98" fill-opacity="0.1333" stroke="none" stroke-width="3"/><path d="M 47 755 C 67 833 124 854 159 903 C 195 949 239 921 277 999 Q 308 1038 343 1008 Q 376 971 422 1002 Q 468 1015 488 948 C 528 911 547 931 578 872 Q 650 837 676 755 Z" fill="url(#rock)" stroke="#382b3d" stroke-width="5" stroke-linecap="round" stroke-linejoin="round" /><path d="M 98 787 Q 162 802 197 893 L 207 926 M 292 828 Q 279 918 305 972 M 508 812 Q 489 890 474 925 M 568 805 L 543 852" fill="none" stroke="#806b80" stroke-width="5" stroke-linecap="round" stroke-linejoin="round" /><path d="M 193 849 Q 220 857 236 880 L 254 933 Q 222 903 209 897 Z" fill="#dac5a3" stroke="none" stroke-width="3" stroke-linecap="round" stroke-linejoin="round" /><path d="M 46 744 C 42 657 173 594 324 614 C 459 578 672 642 677 738 C 706 819 532 856 363 846 C 198 863 22 827 46 744 Z" fill="url(#grass)" stroke="#382b3d" stroke-width="5" stroke-linecap="round" stroke-linejoin="round" /><path d="M 64 752 C 146 820 280 811 359 822 Q 557 840 659 771" fill="none" stroke="#edf0c1" stroke-width="6" stroke-linecap="round" stroke-linejoin="round" /><path d="M 126 733 C 100 680 194 657 253 686 C 301 712 251 751 219 757 Q 145 783 126 733 Z" fill="#f7e9c4" stroke="#382b3d" stroke-width="3" stroke-linecap="round" stroke-linejoin="round" /><path d="M 137 728 C 118 691 194 672 245 696 C 276 714 235 744 206 745 Q 146 762 137 728 Z" fill="url(#pond)" stroke="#5b98a1" stroke-width="2" stroke-linecap="round" stroke-linejoin="round" /><path d="M 150 719 Q 178 704 212 711 M 167 733 Q 190 738 220 727" fill="none" stroke="#e5f8ed" stroke-width="4" stroke-linecap="round" stroke-linejoin="round" /><path d="M 426 640 Q 378 685 438 727 Q 500 763 475 802" fill="none" stroke="#f0d8ac" stroke-width="30" stroke-linecap="round" stroke-linejoin="round" /><ellipse cx="99" cy="737" rx="38.5" ry="13.200000000000001" fill="#5a6255" fill-opacity="0.2000" stroke="none" stroke-width="3"/><path d="M 68.19999999999999 728 Q 67.1 689.5 92.4 681.8 Q 121.0 678.5 133.1 720.3 Q 117.7 741.2 68.19999999999999 728 Z" fill="#c9c7b4" stroke="#382b3d" stroke-width="3" stroke-linecap="round" stroke-linejoin="round" /><path d="M 79.2 707.1 Q 89.1 691.7 107.8 695.0" fill="none" stroke="#fff0cf" stroke-width="4" stroke-linecap="round" stroke-linejoin="round" /><ellipse cx="569" cy="759" rx="45.5" ry="15.600000000000001" fill="#5a6255" fill-opacity="0.2000" stroke="none" stroke-width="3"/><path d="M 532.6 750 Q 531.3 704.5 561.2 695.4 Q 595.0 691.5 609.3 740.9 Q 591.1 765.6 532.6 750 Z" fill="#c9c7b4" stroke="#382b3d" stroke-width="3" stroke-linecap="round" stroke-linejoin="round" /><path d="M 545.6 725.3 Q 557.3 707.1 579.4 711.0" fill="none" stroke="#fff0cf" stroke-width="4" stroke-linecap="round" stroke-linejoin="round" /><ellipse cx="548" cy="686" rx="28.0" ry="9.600000000000001" fill="#5a6255" fill-opacity="0.2000" stroke="none" stroke-width="3"/><path d="M 525.6 677 Q 524.8 649.0 543.2 643.4 Q 564.0 641.0 572.8 671.4 Q 561.6 686.6 525.6 677 Z" fill="#c9c7b4" stroke="#382b3d" stroke-width="3" stroke-linecap="round" stroke-linejoin="round" /><path d="M 533.6 661.8 Q 540.8 650.6 554.4 653.0" fill="none" stroke="#fff0cf" stroke-width="4" stroke-linecap="round" stroke-linejoin="round" /><ellipse cx="282" cy="667" rx="21.0" ry="7.199999999999999" fill="#5a6255" fill-opacity="0.2000" stroke="none" stroke-width="3"/><path d="M 265.2 658 Q 264.6 637.0 278.4 632.8 Q 294.0 631.0 300.6 653.8 Q 292.2 665.2 265.2 658 Z" fill="#c9c7b4" stroke="#382b3d" stroke-width="3" stroke-linecap="round" stroke-linejoin="round" /><path d="M 271.2 646.6 Q 276.6 638.2 286.8 640.0" fill="none" stroke="#fff0cf" stroke-width="4" stroke-linecap="round" stroke-linejoin="round" /><g transform="translate(94 681) scale(0.9)"><path d="M 0 0 Q -26 -38 -4 -61 Q 28 -32 0 0 Z" fill="#469bc1" stroke="#382b3d" stroke-width="2" stroke-linecap="round" stroke-linejoin="round" /><path d="M 0 -5 L -3 -43" fill="none" stroke="#c6dc9f" stroke-width="2" stroke-linecap="round" stroke-linejoin="round" /></g><g transform="translate(104 681) scale(0.63)"><path d="M 0 0 Q -26 -38 -4 -61 Q 28 -32 0 0 Z" fill="#8ab586" stroke="#382b3d" stroke-width="2" stroke-linecap="round" stroke-linejoin="round" /><path d="M 0 -5 L -3 -43" fill="none" stroke="#c6dc9f" stroke-width="2" stroke-linecap="round" stroke-linejoin="round" /></g><g transform="rotate(-37 94 681)"><g transform="translate(94 681) scale(0.7200000000000001)"><path d="M 0 0 Q -26 -38 -4 -61 Q 28 -32 0 0 Z" fill="#589576" stroke="#382b3d" stroke-width="2" stroke-linecap="round" stroke-linejoin="round" /><path d="M 0 -5 L -3 -43" fill="none" stroke="#c6dc9f" stroke-width="2" stroke-linecap="round" stroke-linejoin="round" /></g></g><g transform="translate(605 712) scale(1)"><path d="M 0 0 Q -26 -38 -4 -61 Q 28 -32 0 0 Z" fill="#469bc1" stroke="#382b3d" stroke-width="2" stroke-linecap="round" stroke-linejoin="round" /><path d="M 0 -5 L -3 -43" fill="none" stroke="#c6dc9f" stroke-width="2" stroke-linecap="round" stroke-linejoin="round" /></g><g transform="translate(615 712) scale(0.7)"><path d="M 0 0 Q -26 -38 -4 -61 Q 28 -32 0 0 Z" fill="#8ab586" stroke="#382b3d" stroke-width="2" stroke-linecap="round" stroke-linejoin="round" /><path d="M 0 -5 L -3 -43" fill="none" stroke="#c6dc9f" stroke-width="2" stroke-linecap="round" stroke-linejoin="round" /></g><g transform="rotate(-37 605 712)"><g transform="translate(605 712) scale(0.8)"><path d="M 0 0 Q -26 -38 -4 -61 Q 28 -32 0 0 Z" fill="#589576" stroke="#382b3d" stroke-width="2" stroke-linecap="round" stroke-linejoin="round" /><path d="M 0 -5 L -3 -43" fill="none" stroke="#c6dc9f" stroke-width="2" stroke-linecap="round" stroke-linejoin="round" /></g></g><g transform="translate(528 650) scale(0.7)"><path d="M 0 0 Q -26 -38 -4 -61 Q 28 -32 0 0 Z" fill="#469bc1" stroke="#382b3d" stroke-width="2" stroke-linecap="round" stroke-linejoin="round" /><path d="M 0 -5 L -3 -43" fill="none" stroke="#c6dc9f" stroke-width="2" stroke-linecap="round" stroke-linejoin="round" /></g><g transform="translate(538 650) scale(0.48999999999999994)"><path d="M 0 0 Q -26 -38 -4 -61 Q 28 -32 0 0 Z" fill="#8ab586" stroke="#382b3d" stroke-width="2" stroke-linecap="round" stroke-linejoin="round" /><path d="M 0 -5 L -3 -43" fill="none" stroke="#c6dc9f" stroke-width="2" stroke-linecap="round" stroke-linejoin="round" /></g><g transform="rotate(-37 528 650)"><g transform="translate(528 650) scale(0.5599999999999999)"><path d="M 0 0 Q -26 -38 -4 -61 Q 28 -32 0 0 Z" fill="#589576" stroke="#382b3d" stroke-width="2" stroke-linecap="round" stroke-linejoin="round" /><path d="M 0 -5 L -3 -43" fill="none" stroke="#c6dc9f" stroke-width="2" stroke-linecap="round" stroke-linejoin="round" /></g></g><g transform="translate(100 771) scale(0.55)"><path d="M 0 9 Q -3 -3 2 -12" fill="none" stroke="#4d7858" stroke-width="3" stroke-linecap="round" stroke-linejoin="round" /><ellipse cx="7.0" cy="-13.0" rx="5" ry="5" fill="#fffaf0" stroke="none" stroke-width="3"/><ellipse cx="2.207256536766881" cy="-6.357107664510897" rx="5" ry="5" fill="#fffaf0" stroke="none" stroke-width="3"/><ellipse cx="-5.6080053088285355" cy="-8.810694991272305" rx="5" ry="5" fill="#fffaf0" stroke="none" stroke-width="3"/><ellipse cx="-5.743915501376925" cy="-17.000929231196405" rx="5" ry="5" fill="#fffaf0" stroke="none" stroke-width="3"/><ellipse cx="1.9856352982425838" cy="-19.71246992264197" rx="5" ry="5" fill="#fffaf0" stroke="none" stroke-width="3"/><ellipse cx="0" cy="-13" rx="3.5" ry="3.5" fill="#e9aa46" stroke="none" stroke-width="3"/></g><g transform="translate(203 788) scale(0.65)"><path d="M 0 9 Q -3 -3 2 -12" fill="none" stroke="#4d7858" stroke-width="3" stroke-linecap="round" stroke-linejoin="round" /><ellipse cx="7.0" cy="-13.0" rx="5" ry="5" fill="#aff0ec" stroke="none" stroke-width="3"/><ellipse cx="2.207256536766881" cy="-6.357107664510897" rx="5" ry="5" fill="#aff0ec" stroke="none" stroke-width="3"/><ellipse cx="-5.6080053088285355" cy="-8.810694991272305" rx="5" ry="5" fill="#aff0ec" stroke="none" stroke-width="3"/><ellipse cx="-5.743915501376925" cy="-17.000929231196405" rx="5" ry="5" fill="#aff0ec" stroke="none" stroke-width="3"/><ellipse cx="1.9856352982425838" cy="-19.71246992264197" rx="5" ry="5" fill="#aff0ec" stroke="none" stroke-width="3"/><ellipse cx="0" cy="-13" rx="3.5" ry="3.5" fill="#e9aa46" stroke="none" stroke-width="3"/></g><g transform="translate(306 805) scale(0.75)"><path d="M 0 9 Q -3 -3 2 -12" fill="none" stroke="#4d7858" stroke-width="3" stroke-linecap="round" stroke-linejoin="round" /><ellipse cx="7.0" cy="-13.0" rx="5" ry="5" fill="#fffaf0" stroke="none" stroke-width="3"/><ellipse cx="2.207256536766881" cy="-6.357107664510897" rx="5" ry="5" fill="#fffaf0" stroke="none" stroke-width="3"/><ellipse cx="-5.6080053088285355" cy="-8.810694991272305" rx="5" ry="5" fill="#fffaf0" stroke="none" stroke-width="3"/><ellipse cx="-5.743915501376925" cy="-17.000929231196405" rx="5" ry="5" fill="#fffaf0" stroke="none" stroke-width="3"/><ellipse cx="1.9856352982425838" cy="-19.71246992264197" rx="5" ry="5" fill="#fffaf0" stroke="none" stroke-width="3"/><ellipse cx="0" cy="-13" rx="3.5" ry="3.5" fill="#e9aa46" stroke="none" stroke-width="3"/></g><g transform="translate(409 782) scale(0.55)"><path d="M 0 9 Q -3 -3 2 -12" fill="none" stroke="#4d7858" stroke-width="3" stroke-linecap="round" stroke-linejoin="round" /><ellipse cx="7.0" cy="-13.0" rx="5" ry="5" fill="#aff0ec" stroke="none" stroke-width="3"/><ellipse cx="2.207256536766881" cy="-6.357107664510897" rx="5" ry="5" fill="#aff0ec" stroke="none" stroke-width="3"/><ellipse cx="-5.6080053088285355" cy="-8.810694991272305" rx="5" ry="5" fill="#aff0ec" stroke="none" stroke-width="3"/><ellipse cx="-5.743915501376925" cy="-17.000929231196405" rx="5" ry="5" fill="#aff0ec" stroke="none" stroke-width="3"/><ellipse cx="1.9856352982425838" cy="-19.71246992264197" rx="5" ry="5" fill="#aff0ec" stroke="none" stroke-width="3"/><ellipse cx="0" cy="-13" rx="3.5" ry="3.5" fill="#e9aa46" stroke="none" stroke-width="3"/></g><g transform="translate(512 799) scale(0.65)"><path d="M 0 9 Q -3 -3 2 -12" fill="none" stroke="#4d7858" stroke-width="3" stroke-linecap="round" stroke-linejoin="round" /><ellipse cx="7.0" cy="-13.0" rx="5" ry="5" fill="#fffaf0" stroke="none" stroke-width="3"/><ellipse cx="2.207256536766881" cy="-6.357107664510897" rx="5" ry="5" fill="#fffaf0" stroke="none" stroke-width="3"/><ellipse cx="-5.6080053088285355" cy="-8.810694991272305" rx="5" ry="5" fill="#fffaf0" stroke="none" stroke-width="3"/><ellipse cx="-5.743915501376925" cy="-17.000929231196405" rx="5" ry="5" fill="#fffaf0" stroke="none" stroke-width="3"/><ellipse cx="1.9856352982425838" cy="-19.71246992264197" rx="5" ry="5" fill="#fffaf0" stroke="none" stroke-width="3"/><ellipse cx="0" cy="-13" rx="3.5" ry="3.5" fill="#e9aa46" stroke="none" stroke-width="3"/></g><g transform="translate(105 776) scale(0.75)"><path d="M 0 9 Q -3 -3 2 -12" fill="none" stroke="#4d7858" stroke-width="3" stroke-linecap="round" stroke-linejoin="round" /><ellipse cx="7.0" cy="-13.0" rx="5" ry="5" fill="#aff0ec" stroke="none" stroke-width="3"/><ellipse cx="2.207256536766881" cy="-6.357107664510897" rx="5" ry="5" fill="#aff0ec" stroke="none" stroke-width="3"/><ellipse cx="-5.6080053088285355" cy="-8.810694991272305" rx="5" ry="5" fill="#aff0ec" stroke="none" stroke-width="3"/><ellipse cx="-5.743915501376925" cy="-17.000929231196405" rx="5" ry="5" fill="#aff0ec" stroke="none" stroke-width="3"/><ellipse cx="1.9856352982425838" cy="-19.71246992264197" rx="5" ry="5" fill="#aff0ec" stroke="none" stroke-width="3"/><ellipse cx="0" cy="-13" rx="3.5" ry="3.5" fill="#e9aa46" stroke="none" stroke-width="3"/></g><g transform="translate(208 793) scale(0.55)"><path d="M 0 9 Q -3 -3 2 -12" fill="none" stroke="#4d7858" stroke-width="3" stroke-linecap="round" stroke-linejoin="round" /><ellipse cx="7.0" cy="-13.0" rx="5" ry="5" fill="#fffaf0" stroke="none" stroke-width="3"/><ellipse cx="2.207256536766881" cy="-6.357107664510897" rx="5" ry="5" fill="#fffaf0" stroke="none" stroke-width="3"/><ellipse cx="-5.6080053088285355" cy="-8.810694991272305" rx="5" ry="5" fill="#fffaf0" stroke="none" stroke-width="3"/><ellipse cx="-5.743915501376925" cy="-17.000929231196405" rx="5" ry="5" fill="#fffaf0" stroke="none" stroke-width="3"/><ellipse cx="1.9856352982425838" cy="-19.71246992264197" rx="5" ry="5" fill="#fffaf0" stroke="none" stroke-width="3"/><ellipse cx="0" cy="-13" rx="3.5" ry="3.5" fill="#e9aa46" stroke="none" stroke-width="3"/></g><g transform="translate(311 810) scale(0.65)"><path d="M 0 9 Q -3 -3 2 -12" fill="none" stroke="#4d7858" stroke-width="3" stroke-linecap="round" stroke-linejoin="round" /><ellipse cx="7.0" cy="-13.0" rx="5" ry="5" fill="#aff0ec" stroke="none" stroke-width="3"/><ellipse cx="2.207256536766881" cy="-6.357107664510897" rx="5" ry="5" fill="#aff0ec" stroke="none" stroke-width="3"/><ellipse cx="-5.6080053088285355" cy="-8.810694991272305" rx="5" ry="5" fill="#aff0ec" stroke="none" stroke-width="3"/><ellipse cx="-5.743915501376925" cy="-17.000929231196405" rx="5" ry="5" fill="#aff0ec" stroke="none" stroke-width="3"/><ellipse cx="1.9856352982425838" cy="-19.71246992264197" rx="5" ry="5" fill="#aff0ec" stroke="none" stroke-width="3"/><ellipse cx="0" cy="-13" rx="3.5" ry="3.5" fill="#e9aa46" stroke="none" stroke-width="3"/></g><g transform="translate(414 787) scale(0.75)"><path d="M 0 9 Q -3 -3 2 -12" fill="none" stroke="#4d7858" stroke-width="3" stroke-linecap="round" stroke-linejoin="round" /><ellipse cx="7.0" cy="-13.0" rx="5" ry="5" fill="#fffaf0" stroke="none" stroke-width="3"/><ellipse cx="2.207256536766881" cy="-6.357107664510897" rx="5" ry="5" fill="#fffaf0" stroke="none" stroke-width="3"/><ellipse cx="-5.6080053088285355" cy="-8.810694991272305" rx="5" ry="5" fill="#fffaf0" stroke="none" stroke-width="3"/><ellipse cx="-5.743915501376925" cy="-17.000929231196405" rx="5" ry="5" fill="#fffaf0" stroke="none" stroke-width="3"/><ellipse cx="1.9856352982425838" cy="-19.71246992264197" rx="5" ry="5" fill="#fffaf0" stroke="none" stroke-width="3"/><ellipse cx="0" cy="-13" rx="3.5" ry="3.5" fill="#e9aa46" stroke="none" stroke-width="3"/></g><g transform="translate(517 804) scale(0.55)"><path d="M 0 9 Q -3 -3 2 -12" fill="none" stroke="#4d7858" stroke-width="3" stroke-linecap="round" stroke-linejoin="round" /><ellipse cx="7.0" cy="-13.0" rx="5" ry="5" fill="#aff0ec" stroke="none" stroke-width="3"/><ellipse cx="2.207256536766881" cy="-6.357107664510897" rx="5" ry="5" fill="#aff0ec" stroke="none" stroke-width="3"/><ellipse cx="-5.6080053088285355" cy="-8.810694991272305" rx="5" ry="5" fill="#aff0ec" stroke="none" stroke-width="3"/><ellipse cx="-5.743915501376925" cy="-17.000929231196405" rx="5" ry="5" fill="#aff0ec" stroke="none" stroke-width="3"/><ellipse cx="1.9856352982425838" cy="-19.71246992264197" rx="5" ry="5" fill="#aff0ec" stroke="none" stroke-width="3"/><ellipse cx="0" cy="-13" rx="3.5" ry="3.5" fill="#e9aa46" stroke="none" stroke-width="3"/></g><g transform="translate(110 781) scale(0.65)"><path d="M 0 9 Q -3 -3 2 -12" fill="none" stroke="#4d7858" stroke-width="3" stroke-linecap="round" stroke-linejoin="round" /><ellipse cx="7.0" cy="-13.0" rx="5" ry="5" fill="#fffaf0" stroke="none" stroke-width="3"/><ellipse cx="2.207256536766881" cy="-6.357107664510897" rx="5" ry="5" fill="#fffaf0" stroke="none" stroke-width="3"/><ellipse cx="-5.6080053088285355" cy="-8.810694991272305" rx="5" ry="5" fill="#fffaf0" stroke="none" stroke-width="3"/><ellipse cx="-5.743915501376925" cy="-17.000929231196405" rx="5" ry="5" fill="#fffaf0" stroke="none" stroke-width="3"/><ellipse cx="1.9856352982425838" cy="-19.71246992264197" rx="5" ry="5" fill="#fffaf0" stroke="none" stroke-width="3"/><ellipse cx="0" cy="-13" rx="3.5" ry="3.5" fill="#e9aa46" stroke="none" stroke-width="3"/></g><g transform="translate(213 798) scale(0.75)"><path d="M 0 9 Q -3 -3 2 -12" fill="none" stroke="#4d7858" stroke-width="3" stroke-linecap="round" stroke-linejoin="round" /><ellipse cx="7.0" cy="-13.0" rx="5" ry="5" fill="#aff0ec" stroke="none" stroke-width="3"/><ellipse cx="2.207256536766881" cy="-6.357107664510897" rx="5" ry="5" fill="#aff0ec" stroke="none" stroke-width="3"/><ellipse cx="-5.6080053088285355" cy="-8.810694991272305" rx="5" ry="5" fill="#aff0ec" stroke="none" stroke-width="3"/><ellipse cx="-5.743915501376925" cy="-17.000929231196405" rx="5" ry="5" fill="#aff0ec" stroke="none" stroke-width="3"/><ellipse cx="1.9856352982425838" cy="-19.71246992264197" rx="5" ry="5" fill="#aff0ec" stroke="none" stroke-width="3"/><ellipse cx="0" cy="-13" rx="3.5" ry="3.5" fill="#e9aa46" stroke="none" stroke-width="3"/></g><g transform="translate(316 775) scale(0.55)"><path d="M 0 9 Q -3 -3 2 -12" fill="none" stroke="#4d7858" stroke-width="3" stroke-linecap="round" stroke-linejoin="round" /><ellipse cx="7.0" cy="-13.0" rx="5" ry="5" fill="#fffaf0" stroke="none" stroke-width="3"/><ellipse cx="2.207256536766881" cy="-6.357107664510897" rx="5" ry="5" fill="#fffaf0" stroke="none" stroke-width="3"/><ellipse cx="-5.6080053088285355" cy="-8.810694991272305" rx="5" ry="5" fill="#fffaf0" stroke="none" stroke-width="3"/><ellipse cx="-5.743915501376925" cy="-17.000929231196405" rx="5" ry="5" fill="#fffaf0" stroke="none" stroke-width="3"/><ellipse cx="1.9856352982425838" cy="-19.71246992264197" rx="5" ry="5" fill="#fffaf0" stroke="none" stroke-width="3"/><ellipse cx="0" cy="-13" rx="3.5" ry="3.5" fill="#e9aa46" stroke="none" stroke-width="3"/></g><g transform="translate(419 792) scale(0.65)"><path d="M 0 9 Q -3 -3 2 -12" fill="none" stroke="#4d7858" stroke-width="3" stroke-linecap="round" stroke-linejoin="round" /><ellipse cx="7.0" cy="-13.0" rx="5" ry="5" fill="#aff0ec" stroke="none" stroke-width="3"/><ellipse cx="2.207256536766881" cy="-6.357107664510897" rx="5" ry="5" fill="#aff0ec" stroke="none" stroke-width="3"/><ellipse cx="-5.6080053088285355" cy="-8.810694991272305" rx="5" ry="5" fill="#aff0ec" stroke="none" stroke-width="3"/><ellipse cx="-5.743915501376925" cy="-17.000929231196405" rx="5" ry="5" fill="#aff0ec" stroke="none" stroke-width="3"/><ellipse cx="1.9856352982425838" cy="-19.71246992264197" rx="5" ry="5" fill="#aff0ec" stroke="none" stroke-width="3"/><ellipse cx="0" cy="-13" rx="3.5" ry="3.5" fill="#e9aa46" stroke="none" stroke-width="3"/></g><g transform="translate(522 809) scale(0.75)"><path d="M 0 9 Q -3 -3 2 -12" fill="none" stroke="#4d7858" stroke-width="3" stroke-linecap="round" stroke-linejoin="round" /><ellipse cx="7.0" cy="-13.0" rx="5" ry="5" fill="#fffaf0" stroke="none" stroke-width="3"/><ellipse cx="2.207256536766881" cy="-6.357107664510897" rx="5" ry="5" fill="#fffaf0" stroke="none" stroke-width="3"/><ellipse cx="-5.6080053088285355" cy="-8.810694991272305" rx="5" ry="5" fill="#fffaf0" stroke="none" stroke-width="3"/><ellipse cx="-5.743915501376925" cy="-17.000929231196405" rx="5" ry="5" fill="#fffaf0" stroke="none" stroke-width="3"/><ellipse cx="1.9856352982425838" cy="-19.71246992264197" rx="5" ry="5" fill="#fffaf0" stroke="none" stroke-width="3"/><ellipse cx="0" cy="-13" rx="3.5" ry="3.5" fill="#e9aa46" stroke="none" stroke-width="3"/></g><g transform="translate(115 786) scale(0.55)"><path d="M 0 9 Q -3 -3 2 -12" fill="none" stroke="#4d7858" stroke-width="3" stroke-linecap="round" stroke-linejoin="round" /><ellipse cx="7.0" cy="-13.0" rx="5" ry="5" fill="#aff0ec" stroke="none" stroke-width="3"/><ellipse cx="2.207256536766881" cy="-6.357107664510897" rx="5" ry="5" fill="#aff0ec" stroke="none" stroke-width="3"/><ellipse cx="-5.6080053088285355" cy="-8.810694991272305" rx="5" ry="5" fill="#aff0ec" stroke="none" stroke-width="3"/><ellipse cx="-5.743915501376925" cy="-17.000929231196405" rx="5" ry="5" fill="#aff0ec" stroke="none" stroke-width="3"/><ellipse cx="1.9856352982425838" cy="-19.71246992264197" rx="5" ry="5" fill="#aff0ec" stroke="none" stroke-width="3"/><ellipse cx="0" cy="-13" rx="3.5" ry="3.5" fill="#e9aa46" stroke="none" stroke-width="3"/></g><g transform="translate(218 803) scale(0.65)"><path d="M 0 9 Q -3 -3 2 -12" fill="none" stroke="#4d7858" stroke-width="3" stroke-linecap="round" stroke-linejoin="round" /><ellipse cx="7.0" cy="-13.0" rx="5" ry="5" fill="#fffaf0" stroke="none" stroke-width="3"/><ellipse cx="2.207256536766881" cy="-6.357107664510897" rx="5" ry="5" fill="#fffaf0" stroke="none" stroke-width="3"/><ellipse cx="-5.6080053088285355" cy="-8.810694991272305" rx="5" ry="5" fill="#fffaf0" stroke="none" stroke-width="3"/><ellipse cx="-5.743915501376925" cy="-17.000929231196405" rx="5" ry="5" fill="#fffaf0" stroke="none" stroke-width="3"/><ellipse cx="1.9856352982425838" cy="-19.71246992264197" rx="5" ry="5" fill="#fffaf0" stroke="none" stroke-width="3"/><ellipse cx="0" cy="-13" rx="3.5" ry="3.5" fill="#e9aa46" stroke="none" stroke-width="3"/></g><g transform="translate(321 780) scale(0.75)"><path d="M 0 9 Q -3 -3 2 -12" fill="none" stroke="#4d7858" stroke-width="3" stroke-linecap="round" stroke-linejoin="round" /><ellipse cx="7.0" cy="-13.0" rx="5" ry="5" fill="#aff0ec" stroke="none" stroke-width="3"/><ellipse cx="2.207256536766881" cy="-6.357107664510897" rx="5" ry="5" fill="#aff0ec" stroke="none" stroke-width="3"/><ellipse cx="-5.6080053088285355" cy="-8.810694991272305" rx="5" ry="5" fill="#aff0ec" stroke="none" stroke-width="3"/><ellipse cx="-5.743915501376925" cy="-17.000929231196405" rx="5" ry="5" fill="#aff0ec" stroke="none" stroke-width="3"/><ellipse cx="1.9856352982425838" cy="-19.71246992264197" rx="5" ry="5" fill="#aff0ec" stroke="none" stroke-width="3"/><ellipse cx="0" cy="-13" rx="3.5" ry="3.5" fill="#e9aa46" stroke="none" stroke-width="3"/></g><path d="M 206 789 Q 188 848 218 894 Q 251 957 216 1086 L 247 1086 Q 292 970 256 884 Q 239 835 263 810 Z" fill="#9fdadd" stroke="#5b98a1" stroke-width="3" stroke-linecap="round" stroke-linejoin="round" /><path d="M 230 824 Q 216 860 247 931 Q 262 1000 234 1066" fill="none" stroke="#e5fbf3" stroke-width="7" stroke-linecap="round" stroke-linejoin="round" /><g transform="translate(-95 1005) scale(1.35)"><path d="M 12 79 C -3 56 15 38 39 42 C 40 4 99 -2 116 34 C 147 14 180 35 179 57 C 218 50 237 80 209 94 C 166 107 43 103 12 79 Z" fill="#fffaf0" stroke="#809ca5" stroke-width="2" stroke-linecap="round" stroke-linejoin="round" /><path d="M 23 81 Q 99 95 202 84" fill="none" stroke="#d9e8e4" stroke-width="8" stroke-linecap="round" stroke-linejoin="round" /></g><g transform="translate(555 958) scale(1.15)"><path d="M 12 79 C -3 56 15 38 39 42 C 40 4 99 -2 116 34 C 147 14 180 35 179 57 C 218 50 237 80 209 94 C 166 107 43 103 12 79 Z" fill="#fffaf0" stroke="#809ca5" stroke-width="2" stroke-linecap="round" stroke-linejoin="round" /><path d="M 23 81 Q 99 95 202 84" fill="none" stroke="#d9e8e4" stroke-width="8" stroke-linecap="round" stroke-linejoin="round" /></g><path d="M 165 726 Q 164 706 187 708 Q 204 711 191 729 L 180 719 L 181 733 Z" fill="#9ec287" stroke="#527f73" stroke-width="2" stroke-linecap="round" stroke-linejoin="round" /><g transform="translate(171 717) scale(0.6)"><path d="M 0 9 Q -3 -3 2 -12" fill="none" stroke="#4d7858" stroke-width="3" stroke-linecap="round" stroke-linejoin="round" /><ellipse cx="7.0" cy="-13.0" rx="5" ry="5" fill="#efb0c5" stroke="none" stroke-width="3"/><ellipse cx="2.207256536766881" cy="-6.357107664510897" rx="5" ry="5" fill="#efb0c5" stroke="none" stroke-width="3"/><ellipse cx="-5.6080053088285355" cy="-8.810694991272305" rx="5" ry="5" fill="#efb0c5" stroke="none" stroke-width="3"/><ellipse cx="-5.743915501376925" cy="-17.000929231196405" rx="5" ry="5" fill="#efb0c5" stroke="none" stroke-width="3"/><ellipse cx="1.9856352982425838" cy="-19.71246992264197" rx="5" ry="5" fill="#efb0c5" stroke="none" stroke-width="3"/><ellipse cx="0" cy="-13" rx="3.5" ry="3.5" fill="#e9aa46" stroke="none" stroke-width="3"/></g></svg>